{
	"asset":{
		"generator":"Khronos glTF Blender I/O v3.5.30",
		"version":"2.0"
	},
	"scene":0,
	"scenes":[
		{
			"name":"Scene",
			"nodes":[
				0
			]
		}
	],
	"nodes":[
		{
			"mesh":0,
			"name":"Landscape"
		}
	],
	"meshes":[
		{
			"name":"Landscape",
			"primitives":[
				{
					"attributes":{
						"POSITION":0,
						"NORMAL":1
					},
					"indices":2
				}
			]
		}
	],
	"accessors":[
		{
			"bufferView":0,
			"componentType":5126,
			"count":65536,
			"max":[
				10,
				1.2616028785705566,
				10
			],
			"min":[
				-10,
				0.03105037659406662,
				-10
			],
			"type":"VEC3"
		},
		{
			"bufferView":1,
			"componentType":5126,
			"count":65536,
			"type":"VEC3"
		},
		{
			"bufferView":2,
			"componentType":5125,
			"count":390150,
			"type":"SCALAR"
		}
	],
	"bufferViews":[
		{
			"buffer":0,
			"byteLength":786432,
			"byteOffset":0,
			"target":34962
		},
		{
			"buffer":0,
			"byteLength":786432,
			"byteOffset":786432,
			"target":34962
		},
		{
			"buffer":0,
			"byteLength":1560600,
			"byteOffset":1572864,
			"target":34963
		}
	],
	"buffers":[
		{
			"byteLength":3133464,
			"uri":"data:application/octet-stream;base64,"
		}
	]
}
